# xmcd
#
# Track frame offsets: 
#        150
#        11620
#        27025
#        39312
#        58977
#        71600
#        89855
#        106000
#        124327
#        142462
#        154355
#        169542
#        180642
#        194645
#        210232
#        230037
#
# Disc length: 3237 seconds
#
# Revision: 0
# Processed by: cddbd v1.4PL0 Copyright (c) Steve Scherf et al.
# Submitted via: ExactAudioCopy v0.90b4
#
DISCID=ea0ca310
DTITLE=Various Artist - The Steppin' Out Collection Disc 1
DYEAR=1999
DGENRE=Dance Hall
TTITLE0=Hillbilly Rock, Hillbilly Roll
TTITLE1=I'm Gonna Dance All Night
TTITLE2=Big Dreams Broken Hearts
TTITLE3=Girls Just Wanna Dance
TTITLE4=Let Your Love Flow
TTITLE5=I Wanna Watch You Dance All Night
TTITLE6=You Should Have Thought About Her
TTITLE7=Boot Scootin' Boogie
TTITLE8=Carolena
TTITLE9=I Don't Live In Paradise
TTITLE10=Redneck Girl
TTITLE11=When You Go Dancin'
TTITLE12=He Ain't Mr Right
TTITLE13=Sometime She Lets Him Hold Her
TTITLE14=Cajun Love Song
TTITLE15=Pointy Boots
EXTD=
EXTT0=Sideliners
EXTT1=
EXTT2=
EXTT3=
EXTT4=
EXTT5=
EXTT6=
EXTT7=
EXTT8=
EXTT9=
EXTT10=
EXTT11=
EXTT12=
EXTT13=
EXTT14=
EXTT15=
PLAYORDER=
